<?xml version="1.0" encoding="UTF-8"?><svg xmlns="http://www.w3.org/2000/svg" xmlns:xlink="http://www.w3.org/1999/xlink" viewBox="0 0 32 32" version="1.1"><path fill="#fff" d="M7.844 9C4.039 9 1 12.129 1 16s3.04 7 6.844 7c2.761 0 4.98-1.719 6.531-3.313A19.43 19.43 0 0 0 16 17.782a19.43 19.43 0 0 0 1.625 1.907C19.175 21.28 21.395 23 24.156 23 27.961 23 31 19.871 31 16s-3.04-7-6.844-7c-2.761 0-4.98 1.719-6.531 3.313A19.43 19.43 0 0 0 16 14.219a17.121 17.121 0 0 0-1.563-1.906C12.899 10.714 10.652 9 7.845 9zm0 2c1.972 0 3.808 1.285 5.156 2.688 1.11 1.152 1.523 1.94 1.75 2.312-.23.371-.688 1.156-1.813 2.313C11.57 19.718 9.75 21 7.845 21 5.117 21 3 18.852 3 16s2.117-5 4.844-5zm16.312 0C26.883 11 29 13.148 29 16s-2.117 5-4.844 5c-1.906 0-3.726-1.281-5.093-2.688-1.125-1.156-1.583-1.94-1.813-2.312.23-.371.688-1.156 1.813-2.313C20.43 12.281 22.25 11 24.155 11zM23 13v2h-2v2h2v2h2v-2h2v-2h-2v-2zM5 15v2h6v-2z" id="surface1"/><metadata><rdf:RDF xmlns:rdf="http://www.w3.org/1999/02/22-rdf-syntax-ns#" xmlns:rdfs="http://www.w3.org/2000/01/rdf-schema#" xmlns:dc="http://purl.org/dc/elements/1.1/"><rdf:Description about="https://iconscout.com/legal#licenses" dc:title="arduino" dc:description="arduino" dc:publisher="Iconscout" dc:date="2017-12-30" dc:format="image/svg+xml" dc:language="en"><dc:creator><rdf:Bag><rdf:li>Icons8</rdf:li></rdf:Bag></dc:creator></rdf:Description></rdf:RDF></metadata></svg>